<svg xmlns="http://www.w3.org/2000/svg" width="1120" height="260" viewBox="0 0 1120 260">
<rect width="1120" height="260" fill="#f8fafc"/>
<text x="28" y="42" font-size="24" font-weight="800" fill="#172026">AI Property Recommendation Platform</text>
<defs><marker id="arrow" markerWidth="10" markerHeight="10" refX="8" refY="3" orient="auto"><path d="M0,0 L0,6 L9,3 z" fill="#52606d"/></marker></defs>
<rect x="28" y="96" width="150" height="64" rx="8" fill="#e8f3f1" stroke="#166358"/>
<text x="44" y="134" font-size="14" font-weight="700" fill="#172026">Customer case</text>
<line x1="178" y1="128" x2="212" y2="128" stroke="#52606d" marker-end="url(#arrow)"/>
<rect x="212" y="96" width="150" height="64" rx="8" fill="#e8f3f1" stroke="#166358"/>
<text x="228" y="134" font-size="14" font-weight="700" fill="#172026">Local tools</text>
<line x1="362" y1="128" x2="396" y2="128" stroke="#52606d" marker-end="url(#arrow)"/>
<rect x="396" y="96" width="150" height="64" rx="8" fill="#e8f3f1" stroke="#166358"/>
<text x="412" y="134" font-size="14" font-weight="700" fill="#172026">Evidence</text>
<line x1="546" y1="128" x2="580" y2="128" stroke="#52606d" marker-end="url(#arrow)"/>
<rect x="580" y="96" width="150" height="64" rx="8" fill="#e8f3f1" stroke="#166358"/>
<text x="596" y="134" font-size="14" font-weight="700" fill="#172026">DeepSeek draft</text>
<line x1="730" y1="128" x2="764" y2="128" stroke="#52606d" marker-end="url(#arrow)"/>
<rect x="764" y="96" width="150" height="64" rx="8" fill="#e8f3f1" stroke="#166358"/>
<text x="780" y="134" font-size="14" font-weight="700" fill="#172026">Guardrails</text>
<line x1="914" y1="128" x2="948" y2="128" stroke="#52606d" marker-end="url(#arrow)"/>
<rect x="948" y="96" width="150" height="64" rx="8" fill="#e8f3f1" stroke="#166358"/>
<text x="964" y="134" font-size="14" font-weight="700" fill="#172026">Approval packet</text>
<text x="28" y="215" font-size="14" fill="#52606d">Software Builder Loop output: backend + frontend + data + tests + API-backed evaluation</text>
</svg>
